<?xml version="1.0" standalone="no"?>
<!DOCTYPE svg PUBLIC "-//W3C//DTD SVG 20010904//EN"
 "http://www.w3.org/TR/2001/REC-SVG-20010904/DTD/svg10.dtd">
<svg version="1.0" xmlns="http://www.w3.org/2000/svg"
 width="1000.000000pt" height="545.000000pt" viewBox="0 0 1000.000000 545.000000"
 preserveAspectRatio="xMidYMid meet">

<g transform="translate(0.000000,545.000000) scale(0.100000,-0.100000)" stroke="none">
<path fill="#D40000" d="M6720 4460 c-19 -4 -217 -49 -440 -99 -223 -51 -451 -102 -507 -113
l-102 -21 42 -46 c23 -25 93 -95 155 -155 62 -61 111 -115 110 -122 -2 -7
-182 -193 -400 -413 l-398 -401 -184 0 -184 0 -38 -67 c-20 -38 -58 -104 -85
-148 -26 -44 -87 -152 -137 -240 -49 -88 -98 -176 -109 -195 -91 -160 -124
-222 -121 -226 3 -2 122 115 266 261 l261 265 232 0 232 0 456 460 456 461
155 -153 155 -152 11 45 c14 51 50 206 149 634 21 88 47 203 60 255 12 52 26
114 30 138 8 47 6 48 -65 32z"/>
<path fill="#D40000" d="M4950 4363 c-24 -43 -56 -103 -73 -133 -50 -92 -177 -319 -237 -425
-31 -55 -90 -158 -130 -230 -40 -71 -101 -179 -135 -240 -34 -60 -79 -141 -99
-178 -20 -37 -46 -84 -58 -105 -11 -20 -86 -154 -165 -297 -80 -143 -167 -298
-193 -345 -26 -47 -64 -115 -84 -152 l-37 -68 138 0 c76 0 168 -3 205 -6 86
-8 111 -1 129 33 8 16 40 72 72 126 31 54 57 100 57 102 0 3 24 46 54 97 29
51 78 138 108 193 30 55 127 228 215 385 289 515 275 492 289 478 7 -7 54 -86
104 -175 51 -90 96 -163 100 -163 4 0 71 66 148 146 l142 146 -24 41 c-38 68
-165 295 -193 345 -14 26 -54 97 -88 157 -61 108 -78 139 -145 260 -53 97 -52
97 -100 8z"/>
<path fill="#1a1a1a" d="M5729 3031 c-58 -58 -109 -114 -112 -123 -4 -12 36 -89 120 -230 69
-117 171 -289 226 -383 55 -93 101 -172 103 -174 4 -4 344 80 344 85 0 2 -62
45 -137 95 -76 50 -142 95 -146 99 -6 6 24 137 70 301 4 13 -24 23 -154 56
-149 37 -158 40 -160 64 -23 288 -27 319 -37 317 -6 -1 -59 -49 -117 -107z"/>
<path fill="#1a1a1a" d="M5500 2823 c-14 -9 -26 -17 -28 -19 -2 -1 59 -107 136 -235 76 -129
178 -300 226 -381 48 -82 89 -148 92 -148 8 0 64 30 64 34 0 2 -64 111 -142
242 -77 132 -178 302 -223 379 -46 76 -87 141 -92 142 -4 2 -20 -4 -33 -14z"/>
<path fill="#D40000" d="M6010 1842 c-71 -72 -10 -196 82 -166 87 27 73 172 -19 190 -27 5
-37 1 -63 -24z"/>
<path fill="#D40000" d="M6400 1819 c-59 -24 -98 -89 -108 -182 l-7 -62 -35 0 -35 0 -3 -62
-3 -62 38 -3 38 -3 3 -227 2 -228 70 0 70 0 2 228 3 227 40 -2 c22 -1 68 -2
102 -2 l62 -1 3 -162 c3 -145 6 -168 25 -208 36 -73 123 -110 210 -88 60 15
65 24 46 92 -13 45 -19 56 -32 50 -37 -16 -58 -14 -81 4 -25 20 -25 23 -25
169 l0 148 63 3 63 3 -3 62 -3 62 -39 -3 c-22 -2 -50 -1 -63 3 -21 5 -23 10
-23 80 l0 75 -70 0 -70 0 0 -74 0 -74 -37 -4 c-21 -3 -68 -3 -105 0 -65 5 -68
6 -68 31 0 69 39 102 94 82 29 -12 29 -11 40 42 3 15 9 37 12 50 4 18 0 26
-21 35 -31 14 -120 15 -155 1z"/>
<path fill="#111111" d="M3859 1793 c-1 -16 -3 -202 -3 -415 l-2 -388 73 0 73 0 0 415 0 415
-70 0 c-69 0 -70 0 -71 -27z"/>
<path fill="#111111" d="M4125 1405 l0 -415 68 0 c65 0 67 1 67 25 0 31 5 31 40 1 16 -13 51
-29 79 -36 94 -22 193 24 246 115 78 133 58 340 -42 437 -74 72 -167 86 -257
39 l-56 -30 0 140 0 139 -72 0 -73 0 0 -415z m351 10 c38 -41 49 -84 41 -160
-8 -82 -55 -135 -119 -135 -91 0 -157 142 -114 245 24 57 62 85 114 85 38 0
49 -5 78 -35z"/>
<path fill="#D40000" d="M5370 1405 l0 -415 70 0 70 0 0 180 c0 144 3 186 16 213 29 61 103
85 153 51 43 -31 51 -70 51 -264 l0 -180 70 0 70 0 0 198 c-1 214 -7 262 -46
323 -48 76 -126 103 -219 74 -30 -10 -60 -24 -66 -31 -6 -8 -15 -14 -20 -14
-5 0 -9 63 -9 140 l0 140 -70 0 -70 0 0 -415z"/>
<path fill="#D40000" d="M4970 1793 c-150 -17 -239 -140 -216 -298 6 -37 17 -56 54 -95 41
-42 59 -52 149 -80 145 -47 163 -59 163 -113 0 -58 -23 -79 -95 -85 -68 -6
-136 11 -197 48 l-47 29 -24 -62 c-28 -72 -24 -82 49 -118 100 -48 190 -59
281 -35 77 20 120 51 153 110 25 42 30 62 30 118 0 137 -44 183 -230 242 -100
32 -128 48 -140 82 -13 34 3 70 42 95 47 29 136 23 206 -14 48 -25 53 -26 59
-10 3 10 14 39 24 65 l18 47 -25 20 c-48 38 -170 64 -254 54z"/>
<path fill="#111111" d="M3318 1708 c-168 -460 -258 -708 -258 -713 0 -3 35 -5 79 -5 l78 0
25 78 24 77 158 0 158 0 26 -77 25 -78 85 0 c76 0 83 2 77 18 -3 9 -49 132
-101 272 -118 317 -126 338 -159 428 l-27 72 -82 0 -81 0 -27 -72z m162 -268
l48 -140 -103 0 -102 0 48 142 c27 79 49 145 49 147 0 20 20 -30 60 -149z"/>
<path fill="#D40000" d="M6000 1285 l0 -295 70 0 70 0 -2 293 -3 292 -67 3 -68 3 0 -296z"/>
</g>
</svg>
